# xmcd CD database file
#
# Track frame offsets:
#	150
#	15153
#	33010
#	46813
#	61715
#	78783
#	91640
#	105613
#	122618
#	142495
#	167291
#
# Disc length: 2337 seconds
#
# Revision: 0
# Processed by: cddbd v1.4PL0 Copyright (c) Steve Scherf et al.
# Submitted via: CDex 1.40Release
#
DISCID=6f091f0b
DTITLE=Alabama - Born Country
DYEAR=1900
DGENRE=Country
TTITLE0=Born Country
TTITLE1=Dixieland Delight
TTITLE2=Tennessee River
TTITLE3=Alabama Sky
TTITLE4=Country Side Of Life
TTITLE5=Green River
TTITLE6=Louisiana Moon
TTITLE7=If You're Gonna Play In Texas
TTITLE8=Carolina Mountain Dewe
TTITLE9=You Can't Take The Country Out Of Me
TTITLE10=Hidden Track
EXTD=ID3G: 2
EXTT0=
EXTT1=
EXTT2=
EXTT3=
EXTT4=
EXTT5=
EXTT6=
EXTT7=
EXTT8=
EXTT9=
EXTT10=
PLAYORDER=
